<svg width="64" height="69" viewBox="0 0 64 69" fill="none" xmlns="http://www.w3.org/2000/svg">
<path d="M6.48366 56.2443C2.98813 54.5133 0.818061 50.9079 0.924929 47.0088L1.60114 22.3366C1.69397 18.9495 3.4956 15.8399 6.38779 14.0747L26.9793 1.50731C30.1108 -0.403928 34.0375 -0.446962 37.2101 1.39519L58.0825 13.5144C61.1645 15.3039 63.0612 18.5984 63.0612 22.1623L63.0612 46.9925C63.0612 50.6394 61.0759 53.9971 57.8805 55.7546L37.6382 66.8881C34.7711 68.4651 31.3138 68.5395 28.3814 67.0875L6.48366 56.2443Z" fill="#D9A441"/>
<path d="M42 35H22" stroke="#F2F2F2" strokeWidth="1.2"/>
<path d="M36 29L42 35L36 41" stroke="#F2F2F2" strokeWidth="1.2"/>
</svg>
