<svg width="30" height="28" viewBox="0 0 30 28" fill="none" xmlns="http://www.w3.org/2000/svg">
<path fillRule="evenodd" clipRule="evenodd" d="M25.5237 13.5065C26.593 12.289 27.1871 10.6453 27.1752 8.93681C27.1632 7.22836 26.5463 5.59518 25.4601 4.39657C24.9223 3.80307 24.2855 3.33413 23.5859 3.01651C22.8864 2.69889 22.1379 2.53882 21.3832 2.54543C19.859 2.55878 18.402 3.25027 17.3327 4.46777C17.0423 4.79324 16.6733 5.19275 16.2256 5.66627L14.9809 6.98004L13.7362 5.66627C13.2876 5.19162 12.918 4.79211 12.6277 4.46777C11.5499 3.25971 10.0881 2.58104 8.56391 2.58104C7.03971 2.58104 5.57794 3.25971 4.50017 4.46777C2.28 6.95801 2.25429 10.9841 4.4185 13.4862L14.9809 25.3254L25.5237 13.5065ZM3.21616 3.03024C3.91837 2.24294 4.75207 1.6184 5.66965 1.19231C6.58723 0.766211 7.57071 0.546899 8.56391 0.546899C9.55712 0.546899 10.5406 0.766211 11.4582 1.19231C12.3758 1.6184 13.2095 2.24294 13.9117 3.03024C14.1869 3.3399 14.5433 3.72527 14.9809 4.18636C15.4165 3.72527 15.7729 3.33933 16.0502 3.02855C17.4574 1.42687 19.3747 0.517415 21.3802 0.500247C23.3858 0.48308 25.3152 1.35961 26.7441 2.93701C28.1731 4.51441 28.9845 6.66346 28.9998 8.91141C29.0151 11.1594 28.2331 13.322 26.8258 14.9237L16.0502 27.0037C15.7665 27.3215 15.3819 27.5 14.9809 27.5C14.5799 27.5 14.1953 27.3215 13.9117 27.0037L3.13298 14.922C1.75073 13.3241 0.984669 11.181 1.00023 8.95534C1.0158 6.72971 1.81174 4.60026 3.21616 3.02685V3.03024Z" fill="#E9E9E9" stroke="#E9E9E9"/>
</svg>
