<svg width="28" height="28" viewBox="0 0 28 28" fill="none" xmlns="http://www.w3.org/2000/svg">
<path d="M22.1807 16.6354H11.0904V13.8629L22.1807 13.8629V16.6354ZM22.1807 12.4766L5.54524 12.4766V9.70401L22.1807 9.70401V12.4766ZM22.1807 8.31772L5.54524 8.31772V5.54515L22.1807 5.54515V8.31772ZM27.7258 27.7257L27.7258 2.77257C27.7258 2.01012 27.4541 1.35764 26.9107 0.815137C26.3673 0.272637 25.7148 0.000924191 24.9533 0L2.77266 0C2.0102 0 1.35726 0.271712 0.813838 0.815137C0.270413 1.35856 -0.000836126 2.01104 8.80659e-05 2.77257V19.408C8.80659e-05 20.1705 0.271338 20.8234 0.813838 21.3668C1.35634 21.9103 2.00928 22.1815 2.77266 22.1806L22.1807 22.1806L27.7258 27.7257ZM23.359 19.408L2.77266 19.408V2.77257L24.9533 2.77257V20.9676L23.359 19.408Z" fill="#0D0D0D"/>
</svg>
