<svg width="26" height="27" viewBox="0 0 26 27" fill="none" xmlns="http://www.w3.org/2000/svg">
<path fillRule="evenodd" clipRule="evenodd" d="M15.4428 19.3441C13.8818 20.3922 12.0251 21 10.0327 21C4.4918 21 0 16.299 0 10.5C0 4.70101 4.4918 0 10.0327 0C15.5736 0 20.0655 4.70101 20.0655 10.5C20.0655 12.5852 19.4847 14.5284 18.4832 16.1621L25.1687 23.159C26.0083 24.0377 26.0083 25.4623 25.1687 26.341C24.3292 27.2197 22.9679 27.2197 22.1284 26.341L15.4428 19.3441ZM17.199 10.5C17.199 14.6421 13.9905 18 10.0327 18C6.07492 18 2.86649 14.6421 2.86649 10.5C2.86649 6.35786 6.07492 3 10.0327 3C13.9905 3 17.199 6.35786 17.199 10.5Z" fill="#0D0D0D"/>
</svg>
