<svg width="46" height="46" viewBox="0 0 46 46" fill="none" xmlns="http://www.w3.org/2000/svg">
<path d="M42.0479 4.16406C37.4624 -0.773972 2.97154 11.3225 3.00002 15.739C3.03231 20.7471 16.4697 22.2878 20.1942 23.3328C22.4339 23.9611 23.0337 24.6052 23.5502 26.9538C25.8891 37.5905 27.0634 42.881 29.7398 42.9992C34.0059 43.1877 46.5228 8.98317 42.0479 4.16406Z" stroke="#101211" strokeWidth="5"/>
<path d="M42.0479 4.16406C37.4624 -0.773972 2.97154 11.3225 3.00002 15.739C3.03231 20.7471 16.4697 22.2878 20.1942 23.3328C22.4339 23.9611 23.0337 24.6052 23.5502 26.9538C25.8891 37.5905 27.0634 42.881 29.7398 42.9992C34.0059 43.1877 46.5228 8.98317 42.0479 4.16406Z" fill="#D9A441"/>
<path d="M21.9473 25.1057L29.3157 17.7373" stroke="#101211" strokeWidth="3" strokeLinecap="round" strokeLinejoin="round"/>
</svg>
