<svg width="26" height="30" viewBox="0 0 26 30" fill="none" xmlns="http://www.w3.org/2000/svg">
<path fill-rule="evenodd" clip-rule="evenodd" d="M16.5135 21.2317C14.2607 20.9228 11.9737 20.9228 9.72091 21.2317L8.14699 21.4476C5.61954 21.7942 3.74219 24.1215 3.74219 26.5725C3.74219 26.8086 3.94158 27 4.18753 27H22.0468C22.2928 27 22.4922 26.8086 22.4922 26.5725C22.4922 24.1215 20.6149 21.7942 18.0874 21.4476L16.5135 21.2317ZM9.27897 18.2619C11.8249 17.9127 14.4095 17.9127 16.9555 18.2619L18.5294 18.4777C22.5963 19.0355 25.6172 22.6285 25.6172 26.5725C25.6172 28.4654 24.0187 30 22.0468 30H4.18753C2.21569 30 0.617188 28.4654 0.617188 26.5725C0.617188 22.6285 3.63808 19.0355 7.70505 18.4777L9.27897 18.2619Z" fill="#101211"/>
<path fill-rule="evenodd" clip-rule="evenodd" d="M13.1172 12C15.706 12 17.8047 9.98528 17.8047 7.5C17.8047 5.01472 15.706 3 13.1172 3C10.5284 3 8.42971 5.01472 8.42971 7.5C8.42971 9.98528 10.5284 12 13.1172 12ZM13.1172 15C17.4319 15 20.9297 11.6421 20.9297 7.5C20.9297 3.35786 17.4319 0 13.1172 0C8.80248 0 5.30471 3.35786 5.30471 7.5C5.30471 11.6421 8.80248 15 13.1172 15Z" fill="#101211"/>
</svg>
